<?xml version="1.0" encoding="UTF-8" standalone="yes"?><svg xmlns="http://www.w3.org/2000/svg" xmlns:xlink="http://www.w3.org/1999/xlink" height="262pt" style="width:168px;height:262px;" version="1.1" viewBox="0 0 168 262" width="168pt"><defs><filter height="300%" id="f1" width="300%" x="-1" y="-1"><feGaussianBlur result="blurOut" stdDeviation="2.0"/><feColorMatrix in="blurOut" result="blurOut2" type="matrix" values="0 0 0 0 0 0 0 0 0 0 0 0 0 0 0 0 0 0 .4 0"/><feOffset dx="4.0" dy="4.0" in="blurOut2" result="blurOut3"/><feBlend in="SourceGraphic" in2="blurOut3" mode="normal"/></filter></defs><g><text fill="#000000" font-family="sans-serif" font-size="18" lengthAdjust="spacingAndGlyphs" textLength="36" x="29" y="29.6992">Web</text><line style="stroke: #000000; stroke-width: 2.0;" x1="10" x2="10" y1="11.6992" y2="255.2969"/><ellipse cx="47" cy="42.8984" fill="#000000" filter="url(#f1)" rx="10" ry="10" style="stroke: none; stroke-width: 1.0;"/><rect fill="#FEFECE" filter="url(#f1)" height="34.1328" rx="12.5" ry="12.5" style="stroke: #A80036; stroke-width: 1.5;" width="54" x="20" y="72.8984"/><text fill="#000000" font-family="sans-serif" font-size="12" lengthAdjust="spacingAndGlyphs" textLength="34" x="30" y="94.5">action</text><ellipse cx="47" cy="245.2969" fill="none" filter="url(#f1)" rx="10" ry="10" style="stroke: #000000; stroke-width: 1.0;"/><ellipse cx="47.5" cy="245.7969" fill="#000000" filter="url(#f1)" rx="6" ry="6" style="stroke: none; stroke-width: 1.0;"/><text fill="#000000" font-family="sans-serif" font-size="18" lengthAdjust="spacingAndGlyphs" textLength="53" x="99" y="29.6992">Server</text><line style="stroke: #000000; stroke-width: 2.0;" x1="84" x2="84" y1="11.6992" y2="255.2969"/><rect fill="#FEFECE" filter="url(#f1)" height="34.1328" rx="12.5" ry="12.5" style="stroke: #A80036; stroke-width: 1.5;" width="63" x="94" y="127.0313"/><text fill="#000000" font-family="sans-serif" font-size="12" lengthAdjust="spacingAndGlyphs" textLength="43" x="104" y="148.6328">running</text><rect fill="#FEFECE" filter="url(#f1)" height="34.1328" rx="12.5" ry="12.5" style="stroke: #A80036; stroke-width: 1.5;" width="55" x="98" y="181.1641"/><text fill="#000000" font-family="sans-serif" font-size="12" lengthAdjust="spacingAndGlyphs" textLength="35" x="108" y="202.7656">return</text><line style="stroke: #000000; stroke-width: 2.0;" x1="167" x2="167" y1="11.6992" y2="255.2969"/><line style="stroke: #A80036; stroke-width: 1.5;" x1="47" x2="47" y1="52.8984" y2="72.8984"/><polygon fill="#A80036" points="43,62.8984,47,72.8984,51,62.8984,47,66.8984" style="stroke: #A80036; stroke-width: 1.0;"/><line style="stroke: #A80036; stroke-width: 1.5;" x1="125.5" x2="125.5" y1="161.1641" y2="181.1641"/><polygon fill="#A80036" points="121.5,171.1641,125.5,181.1641,129.5,171.1641,125.5,175.1641" style="stroke: #A80036; stroke-width: 1.0;"/><line style="stroke: #A80036; stroke-width: 1.5;" x1="47" x2="47" y1="107.0313" y2="112.0313"/><line style="stroke: #A80036; stroke-width: 1.5;" x1="47" x2="125.5" y1="112.0313" y2="112.0313"/><line style="stroke: #A80036; stroke-width: 1.5;" x1="125.5" x2="125.5" y1="112.0313" y2="127.0313"/><polygon fill="#A80036" points="121.5,117.0313,125.5,127.0313,129.5,117.0313,125.5,121.0313" style="stroke: #A80036; stroke-width: 1.0;"/><line style="stroke: #A80036; stroke-width: 1.5;" x1="125.5" x2="125.5" y1="215.2969" y2="220.2969"/><line style="stroke: #A80036; stroke-width: 1.5;" x1="47" x2="125.5" y1="220.2969" y2="220.2969"/><line style="stroke: #A80036; stroke-width: 1.5;" x1="47" x2="47" y1="220.2969" y2="235.2969"/><polygon fill="#A80036" points="43,225.2969,47,235.2969,51,225.2969,47,229.2969" style="stroke: #A80036; stroke-width: 1.0;"/></g></svg>